<?xml version="1.0" encoding="utf-8"?>
<!-- Generator: Adobe Illustrator 27.6.1, SVG Export Plug-In . SVG Version: 6.00 Build 0)  -->
<svg version="1.1" id="Layer_1" xmlns="http://www.w3.org/2000/svg" xmlns:xlink="http://www.w3.org/1999/xlink" x="0px" y="0px"
	 viewBox="0 0 512 512" style="enable-background:new 0 0 512 512;" xml:space="preserve">
<style type="text/css">
	.st0{fill-rule:evenodd;clip-rule:evenodd;}
</style>
<g>
	<g id="e-text">
		<path id="Path" d="M320.56,255.15c0,0-4.41,1.05-8.13,1.94l-5.67,1.29c-0.02,0-0.04,0-0.05,0c0-1.53,0.11-3.14,0.47-4.62
			c0.47-1.9,1.5-4.13,3.29-5.1c1.94-1.06,4.32-1.19,6.38-0.36c2.13,0.84,3.11,2.9,3.53,5.04c0.12,0.59,0.2,1.19,0.25,1.8
			L320.56,255.15z M335.33,258.38c0-14.79-9.31-21.14-21.2-21.14c-13.45,0-21.87,9.32-21.87,21.22c0,12.94,7.17,21.36,22.61,21.36
			c8.35,0,13.08-1.48,18.69-4.29l-2.14-9.69c-4.29,1.92-8.27,3.1-13.6,3.1c-5.83,0-9.16-2.22-10.42-6.36h27.56
			C335.18,261.48,335.33,260.23,335.33,258.38z"/>
		<path id="Path-1" d="M197.65,255.15c0,0-4.41,1.05-8.13,1.94l-5.67,1.29c-0.02,0-0.04,0-0.05,0c0-1.53,0.11-3.14,0.47-4.62
			c0.47-1.9,1.5-4.13,3.29-5.1c1.94-1.06,4.32-1.19,6.38-0.36c2.13,0.84,3.11,2.9,3.53,5.04c0.12,0.59,0.2,1.19,0.25,1.8
			L197.65,255.15z M212.42,258.38c0-14.79-9.31-21.14-21.2-21.14c-13.45,0-21.87,9.32-21.87,21.22c0,12.94,7.17,21.36,22.61,21.36
			c8.35,0,13.08-1.48,18.69-4.29l-2.14-9.69c-4.28,1.92-8.27,3.1-13.6,3.1c-5.83,0-9.16-2.22-10.42-6.36h27.56
			C212.28,261.48,212.42,260.23,212.42,258.38z"/>
		<path id="Path-2" d="M164.31,226.37h-13.64v51.97h13.64V226.37z"/>
		<path id="Path-3" d="M338.22,238.57h14.34l3.02,9.19c1.89-4.54,6.13-10.37,13.67-10.37c10.34,0,15.96,5.25,15.96,18.77v22.18
			h-14.33c0-4.62,0.01-9.24,0.01-13.86c0-2.12-0.03-4.24,0-6.36c0.02-1.96,0.16-3.98-0.88-5.73c-0.7-1.18-1.86-2.06-3.1-2.65
			c-2.53-1.21-5.27-1.17-7.76,0.12c-0.61,0.31-3.57,1.91-3.57,2.65v25.83h-14.33V249.3L338.22,238.57z"/>
		<path id="Path-4" d="M396.8,248.99h-6.58v-10.42h6.58v-6.52l14.33-3.37v9.89h14.41v10.42h-14.41v11.68c0,4.58,2.22,6.73,5.54,6.73
			c3.4,0,5.32-0.45,8.2-1.4l1.7,10.79c-3.92,1.7-8.79,2.51-13.75,2.51c-10.42,0-16.04-4.95-16.04-14.56v-15.75H396.8z"/>
		<path id="Path-5" d="M453.11,267.99c5.24,0,8.35-3.77,8.35-9.83c0-6.07-2.96-9.54-8.13-9.54c-5.25,0-8.27,3.47-8.27,9.76
			C445.06,264.29,448.02,267.99,453.11,267.99z M453.26,237.02c13.45,0,23.27,8.42,23.27,21.51c0,13.16-9.82,21.07-23.42,21.07
			c-13.52,0-23.13-8.13-23.13-21.07C429.99,245.44,439.52,237.02,453.26,237.02z"/>
		<path id="Path-6" d="M279.41,238.44c-2.54-1.04-5.41-1.43-8.14-1.04c-1.39,0.2-2.76,0.61-4.02,1.23
			c-3.47,1.72-6.18,5.63-7.64,9.12c-0.95-4.02-3.73-7.64-7.8-9.31c-2.54-1.04-5.41-1.43-8.14-1.04c-1.4,0.2-2.76,0.61-4.03,1.23
			c-3.46,1.71-6.17,5.61-7.63,9.09v-0.25l-2.92-8.9h-14.33l3.02,10.73v29.04h14.24v-25.95c0.05-0.19,0.69-0.55,0.8-0.64
			c1.67-1.18,3.63-2.41,5.72-2.56c2.13-0.16,4.23,0.93,5.5,2.62c0.14,0.19,0.26,0.37,0.38,0.57c1.04,1.76,0.9,3.78,0.88,5.73
			c-0.03,2.12,0.01,4.24,0.01,6.36c-0.01,4.62-0.01,9.24-0.01,13.86h14.34v-22.18c0-0.11,0-0.22,0-0.34v-3.42
			c0.03-0.19,0.68-0.56,0.8-0.64c1.66-1.18,3.63-2.41,5.72-2.56c2.13-0.16,4.23,0.93,5.5,2.62c0.14,0.19,0.27,0.37,0.38,0.57
			c1.04,1.76,0.9,3.78,0.88,5.73c-0.03,2.12,0.01,4.24,0.01,6.36c-0.01,4.62-0.01,9.24-0.01,13.86h14.33v-22.18
			C287.23,249.66,286.3,241.28,279.41,238.44z"/>
		<path id="Path-7" d="M510.44,237.39c-7.53,0-11.78,5.84-13.67,10.37l-3.02-9.19h-14.34l3.02,10.73v29.04h14.34v-26.83
			c2.04-0.36,13.13,1.68,15.23,2.45v-16.53C511.49,237.41,510.97,237.39,510.44,237.39z"/>
		<path id="Path-8" d="M130.87,253.83c0,0-4.41,1.05-8.13,1.94l-5.67,1.29c-0.02,0-0.04,0-0.05,0c0-1.53,0.11-3.14,0.47-4.62
			c0.47-1.9,1.5-4.13,3.29-5.1c1.94-1.06,4.32-1.19,6.38-0.36c2.13,0.85,3.11,2.9,3.52,5.04c0.12,0.59,0.2,1.19,0.25,1.8
			L130.87,253.83z M145.64,257.05c0-14.79-9.31-21.14-21.2-21.14c-13.45,0-21.87,9.31-21.87,21.21c0,12.94,7.17,21.37,22.61,21.37
			c8.35,0,13.08-1.48,18.69-4.29l-2.14-9.69c-4.28,1.92-8.27,3.1-13.6,3.1c-5.83,0-9.16-2.22-10.42-6.36h27.56
			C145.5,260.16,145.64,258.9,145.64,257.05z"/>
	</g>
	<path id="e-icon" class="st0" d="M0,256c0,22.62,18.33,40.97,40.94,40.97c22.61,0,40.94-18.34,40.94-40.97
		s-18.33-40.97-40.94-40.97C18.33,215.03,0,233.38,0,256z M30.71,238.93h-6.82v34.14h6.82V238.93z M37.53,238.93H58v6.83H37.53
		V238.93z M58,252.58H37.53v6.83H58V252.58z M37.53,266.24H58v6.83H37.53V266.24z"/>
</g>
</svg>
